<svg width="36" height="34" viewBox="0 0 36 34" fill="none" xmlns="http://www.w3.org/2000/svg">
<path d="M15.903 28.7428C13.0307 32.7507 6.97013 33.3252 6.97013 33.3252C6.91138 32.9692 5.56637 27.4015 8.43862 23.3935C11.3109 19.3856 17.6686 18.3965 17.6686 18.3965C17.6686 18.3965 18.7752 24.7349 15.903 28.7428Z" fill="#B8BFD0"/>
<path d="M26.963 23.2723C29.8872 27.2425 28.5607 33.1839 28.5607 33.1839C28.204 33.1298 22.4931 32.6885 19.5689 28.7183C16.6447 24.7481 17.6686 18.3965 17.6686 18.3965C17.6686 18.3965 24.0388 19.3021 26.963 23.2723Z" fill="#B8BFD0"/>
<path d="M25.1797 11.0633C29.8592 9.50907 35.1 12.6067 35.1 12.6067C34.9383 12.9292 32.7538 18.2241 28.0743 19.7784C23.3948 21.3326 17.6699 18.3958 17.6699 18.3958C17.6699 18.3958 20.5002 12.6175 25.1797 11.0633Z" fill="#B8BFD0"/>
<path d="M7.28159 19.9134C2.58224 18.4203 0.163086 12.8338 0.163086 12.8338C0.483443 12.6679 5.36308 9.66822 10.0624 11.1614C14.7618 12.6545 17.6671 18.3955 17.6671 18.3955C17.6671 18.3955 11.9809 21.4066 7.28159 19.9134Z" fill="#B8BFD0"/>
<path d="M13.0153 8.9876C12.9832 4.05685 17.5486 0.0297852 17.5486 0.0297852C17.8054 0.283208 22.1662 3.99705 22.1983 8.92781C22.2304 13.8586 17.6686 18.3965 17.6686 18.3965C17.6686 18.3965 13.0474 13.9184 13.0153 8.9876Z" fill="#B8BFD0"/>
</svg>
