<svg width="36" height="34" viewBox="0 0 36 34" fill="none" xmlns="http://www.w3.org/2000/svg">
<path d="M16.651 28.7428C13.7788 32.7507 7.71818 33.3252 7.71818 33.3252C7.65942 32.9692 6.31442 27.4015 9.18667 23.3935C12.0589 19.3856 18.4167 18.3965 18.4167 18.3965C18.4167 18.3965 19.5233 24.7349 16.651 28.7428Z" fill="#B8BFD0"/>
<path d="M27.71 23.2723C30.6342 27.2425 29.3077 33.1839 29.3077 33.1839C28.9511 33.1298 23.2402 32.6885 20.316 28.7183C17.3918 24.7481 18.4157 18.3958 18.4157 18.3958C18.4157 18.3958 24.7858 19.3021 27.71 23.2723Z" fill="#B8BFD0"/>
<path d="M25.9268 11.0633C30.6063 9.50907 35.8471 12.6067 35.8471 12.6067C35.6854 12.9292 33.5009 18.2241 28.8214 19.7784C24.1419 21.3326 18.4167 18.3965 18.4167 18.3965C18.4167 18.3965 21.2473 12.6175 25.9268 11.0633Z" fill="#3B477B"/>
<path d="M8.02866 19.9134C3.32931 18.4203 0.910156 12.8338 0.910156 12.8338C1.23051 12.6679 6.11015 9.66822 10.8095 11.1614C15.5088 12.6545 18.4142 18.3955 18.4142 18.3955C18.4142 18.3955 12.728 21.4066 8.02866 19.9134Z" fill="#B8BFD0"/>
<path d="M13.7623 8.9876C13.7302 4.05685 18.2957 0.0297852 18.2957 0.0297852C18.5524 0.283208 22.9132 3.99705 22.9453 8.92781C22.9774 13.8586 18.4157 18.3958 18.4157 18.3958C18.4157 18.3958 13.7944 13.9184 13.7623 8.9876Z" fill="#3B477B"/>
</svg>
